<svg width="331" height="271" viewBox="0 0 331 271" fill="none" xmlns="http://www.w3.org/2000/svg">
<g id="planets">
<g id="dark blue">
<path d="M4 15C4 14 3.5405 13.9465 4 12C4.51374 9.82375 6 8 9 5C10 4 11.0761 2.38268 12 2C13.3066 1.45881 13 1 13 1C14 1 14 1 14 1C15 1 17 1 19 1C21 1 22 1 24 1C25 1 25.8237 1.48626 28 2C28.9733 2.22975 30 3 31 3C31 3 31.2929 2.29289 32 3C32.7071 3.70711 33 5 34 6C35 7 35.6926 8.18601 37 10C37.8269 11.1473 38.4863 11.8238 39 14C39.4595 15.9465 40 17 40 18C40 19 40 19 40 20C40 21 39.8269 21.8527 39 23C37.6926 24.814 38 26 37 27C36 28 36 29 35 29C35 29 33.9239 28.6173 33 29C31.6934 29.5412 30.3066 30.4588 29 31C27.1522 31.7654 26 31 25 31C24 31 21.7071 30.2929 21 31C20.2929 31.7071 19 32 19 32C18 33 18 33 17 33C16 32 13.5811 31.5811 12 30C10.4189 28.4189 9 27 7 25C6 24 5 23 4 22C3 21 2.70711 19.7071 2 19C1.29289 18.2929 1 19 1 18V17C1 17 1 17 1 16C1 16 1 16 2 16C2 16 1.29289 15.7071 2 15C2.70711 14.2929 3 14 3 14C4 14 4 14 4 14V13" fill="#426373"/>
<path d="M4 15C4 14 3.5405 13.9465 4 12C4.51374 9.82375 6 8 9 5C10 4 11.0761 2.38268 12 2C13.3066 1.45881 13 1 13 1C14 1 14 1 14 1C15 1 17 1 19 1C21 1 22 1 24 1C25 1 25.8237 1.48626 28 2C28.9733 2.22975 30 3 31 3C31 3 31.2929 2.29289 32 3C32.7071 3.70711 33 5 34 6C35 7 35.6926 8.18601 37 10C37.8269 11.1473 38.4863 11.8238 39 14C39.4595 15.9465 40 17 40 18C40 19 40 19 40 20C40 21 39.8269 21.8527 39 23C37.6926 24.814 38 26 37 27C36 28 36 29 35 29C35 29 33.9239 28.6173 33 29C31.6934 29.5412 30.3066 30.4588 29 31C27.1522 31.7654 26 31 25 31C24 31 21.7071 30.2929 21 31C20.2929 31.7071 19 32 19 32C18 33 18 33 17 33C16 32 13.5811 31.5811 12 30C10.4189 28.4189 9 27 7 25C6 24 5 23 4 22C3 21 2.70711 19.7071 2 19C1.29289 18.2929 1 19 1 18V17C1 17 1 17 1 16C1 16 1 16 2 16C2 16 1.29289 15.7071 2 15C2.70711 14.2929 3 14 3 14C4 14 4 14 4 14V13" stroke="black" stroke-width="1.5"/>
</g>
<g id="tan">
<path d="M294 109C294 109 294 108 296 107C298 106 299.934 104.856 302 104C304.922 102.79 306.693 101.541 308 101C309.848 100.235 311 101 312 101C314 101 315 101 317 101C318 101 319.293 101.293 320 102C321.414 103.414 322.693 103.459 324 104C324.924 104.383 326 106 327 108C328 110 328.541 112.054 329 114C329.514 116.176 330 118 330 120C330 122 330 124 330 125C330 126 330 126 330 128C330 129 330 130 330 131C330 131 329 131 327 131C326 131 322.978 131.633 320 132C315.908 132.504 311 133 308 133C306 133 305 133 305 133C304 133 304 133 304 133C303 133 303 133 303 133C301 133 299.814 131.307 298 130C295.705 128.346 294 126 292 124C290 122 288.082 120.613 287 118C286.617 117.076 286 116 286 116C286 116 286 116 286 115C286 115 285.617 114.924 286 114C286.541 112.693 287 112 288 111C289 110 290.486 109.176 291 107C291.23 106.027 291.293 105.707 292 105C292.707 104.293 293 105 293 105H294C295 105 295 105 296 105C297 105 297 105 297 105H298" fill="#B8874D"/>
<path d="M294 109C294 109 294 108 296 107C298 106 299.934 104.856 302 104C304.922 102.79 306.693 101.541 308 101C309.848 100.235 311 101 312 101C314 101 315 101 317 101C318 101 319.293 101.293 320 102C321.414 103.414 322.693 103.459 324 104C324.924 104.383 326 106 327 108C328 110 328.541 112.054 329 114C329.514 116.176 330 118 330 120C330 122 330 124 330 125C330 126 330 126 330 128C330 129 330 130 330 131C330 131 329 131 327 131C326 131 322.978 131.633 320 132C315.908 132.504 311 133 308 133C306 133 305 133 305 133C304 133 304 133 304 133C303 133 303 133 303 133C301 133 299.814 131.307 298 130C295.705 128.346 294 126 292 124C290 122 288.082 120.613 287 118C286.617 117.076 286 116 286 116C286 116 286 116 286 115C286 115 285.617 114.924 286 114C286.541 112.693 287 112 288 111C289 110 290.486 109.176 291 107C291.23 106.027 291.293 105.707 292 105C292.707 104.293 293 105 293 105H294C295 105 295 105 296 105C297 105 297 105 297 105H298" stroke="black" stroke-width="1.5"/>
</g>
<g id="light blue">
<path d="M157 233C158 233 159.078 233.21 162 232C164.066 231.144 166.31 230.663 169 229C171.406 227.513 174.053 226.46 176 226C178.176 225.486 179 225 182 225C184 225 185 225 187 225C188 225 189.853 225.173 191 226C192.814 227.307 194 229 195 231C196 233 197.116 236.964 198 240C199.153 243.959 199.486 245.824 200 248C200.23 248.973 200 250 200 251C200 251 200.23 252.027 200 253C199.486 255.176 198 258 197 259C196 260 194.924 261.617 194 262C192.693 262.541 191.973 263.77 191 264C188.824 264.514 187.176 267.486 185 268C183.053 268.46 180 270 179 270C178 270 176 270 175 270C174 270 173 270 171 269C169 268 166.814 266.307 165 265C162.705 263.346 161.707 261.707 161 261C160.293 260.293 160 261 160 260C159 259 157.856 257.066 157 255C155.79 252.078 155 250 154 249C153 248 153.765 246.848 153 245C152.459 243.693 152 243 152 242C152 241 152 240 152 239C152 236 152 235 152 233C152 232 152 231 153 230C154 229 154.693 228.541 156 228C156.924 227.617 158 227 158 227H159" fill="#B1FFFF"/>
<path d="M157 233C158 233 159.078 233.21 162 232C164.066 231.144 166.31 230.663 169 229C171.406 227.513 174.053 226.46 176 226C178.176 225.486 179 225 182 225C184 225 185 225 187 225C188 225 189.853 225.173 191 226C192.814 227.307 194 229 195 231C196 233 197.116 236.964 198 240C199.153 243.959 199.486 245.824 200 248C200.23 248.973 200 250 200 251C200 251 200.23 252.027 200 253C199.486 255.176 198 258 197 259C196 260 194.924 261.617 194 262C192.693 262.541 191.973 263.77 191 264C188.824 264.514 187.176 267.486 185 268C183.053 268.46 180 270 179 270C178 270 176 270 175 270C174 270 173 270 171 269C169 268 166.814 266.307 165 265C162.705 263.346 161.707 261.707 161 261C160.293 260.293 160 261 160 260C159 259 157.856 257.066 157 255C155.79 252.078 155 250 154 249C153 248 153.765 246.848 153 245C152.459 243.693 152 243 152 242C152 241 152 240 152 239C152 236 152 235 152 233C152 232 152 231 153 230C154 229 154.693 228.541 156 228C156.924 227.617 158 227 158 227H159" stroke="black" stroke-width="1.5"/>
</g>
</g>
</svg>
